<svg width="80" height="16" xmlns="http://www.w3.org/2000/svg">

 <g>
  <title>background</title>
  <rect fill="none" id="canvas_background" height="402" width="582" y="-1" x="-1"/>
 </g>
 <g>
  <title>Layer 1</title>
  <g id="svg_3">
   <path id="svg_4" d="m31,1l-14,0c-0.6,0 -1,0.4 -1,1l0,12c0,0.6 0.4,1 1,1l14,0c0.6,0 1,-0.4 1,-1l0,-12c0,-0.6 -0.4,-1 -1,-1zm-1,12l-12,0l0,-6.3l5.5,3.1c0.200001,0.2 0.299999,0.2 0.5,0.2s0.299999,0 0.5,-0.1l5.5,-3.2l0,6.3zm0,-8.6l-6,3.4l-6,-3.4l0,-1.4l12,0l0,1.4z" fill="#ffffff"/>
  </g>
  <g id="svg_5">
   <path id="svg_6" d="m35,16l10,0c0.599998,0 1,-0.4 1,-1l0,-7.5l0.299999,0.3c0.200001,0.1 0.5,0.2 0.700001,0.2c0.299999,0 0.599998,-0.1 0.799999,-0.3c0.400002,-0.4 0.299999,-1 -0.099998,-1.4l-7,-6c-0.400002,-0.3 -0.900002,-0.3 -1.299999,0l-3.400002,2.8l0,-1.1c0,-0.6 -0.400002,-1 -1,-1s-1,0.4 -1,1l0,2.8l-1.700001,1.4c-0.4,0.4 -0.5,1 -0.099998,1.4c0.399998,0.4 1,0.5 1.399998,0.1l0.400002,-0.2l0,7.5c0,0.6 0.400002,1 1,1zm1,-10.3l4,-3.4l4,3.5c0,0.1 0,0.1 0,0.2l0,8l-2,0l0,-3c0,-0.6 -0.400002,-1 -1,-1l-2,0c-0.599998,0 -1,0.4 -1,1l0,3l-2,0l0,-8.3z" fill="#ffffff"/>
   <rect id="svg_7" height="2" width="4" fill="#ffffff" y="6" x="38"/>
  </g>
  <g id="svg_11">
   <path id="svg_12" d="m70,0l-5,0c-0.599998,0 -1,0.4 -1,1l0,5c0,0.6 0.400002,1 1,1l5,0c0.599998,0 1,-0.4 1,-1l0,-5c0,-0.6 -0.400002,-1 -1,-1zm-1,5l-3,0l0,-3l3,0l0,3z" fill="#ffffff"/>
   <path id="svg_13" d="m79,0l-5,0c-0.599998,0 -1,0.4 -1,1l0,5c0,0.6 0.400002,1 1,1l5,0c0.599998,0 1,-0.4 1,-1l0,-5c0,-0.6 -0.400002,-1 -1,-1zm-1,5l-3,0l0,-3l3,0l0,3z" fill="#ffffff"/>
   <path id="svg_14" d="m70,9l-5,0c-0.599998,0 -1,0.4 -1,1l0,5c0,0.6 0.400002,1 1,1l5,0c0.599998,0 1,-0.4 1,-1l0,-5c0,-0.6 -0.400002,-1 -1,-1zm-1,5l-3,0l0,-3l3,0l0,3z" fill="#ffffff"/>
   <path id="svg_15" d="m79,9l-5,0c-0.599998,0 -1,0.4 -1,1l0,5c0,0.6 0.400002,1 1,1l5,0c0.599998,0 1,-0.4 1,-1l0,-5c0,-0.6 -0.400002,-1 -1,-1zm-1,5l-3,0l0,-3l3,0l0,3z" fill="#ffffff"/>
  </g>
  <g id="svg_19">
   <path id="svg_18" d="m62.948288,1.112423l-14,0c-0.599998,0 -1,0.4 -1,1l0,12c0,0.6 0.400002,1 1,1l14,0c0.599998,0 1,-0.4 1,-1l0,-12c0,-0.6 -0.400002,-1 -1,-1zm-1,12l-12,0l0,-6.300001l5.5,3.100001c0.200001,0.2 0.299999,0.2 0.5,0.2s0.299999,0 0.5,-0.1l5.5,-3.2l0,6.300001zm0,-8.6l-6,3.4l-6,-3.4l0,-1.4l12,0l0,1.4z" fill="#ffffff"/>
  </g>
  <g id="svg_8">
   <circle id="svg_20" r="1.999994" cy="8" cx="5.98603" fill="#ffffff"/>
   <path id="svg_21" d="m9.986368,2l-4,0c-3.299999,0 -5.999994,2.7 -5.999994,6s2.699994,6 5.999994,6l4,0c3.299999,0 6,-2.7 6,-6s-2.700001,-6 -6,-6zm0,10l-4,0c-2.200001,0 -4,-1.8 -4,-4s1.799999,-4 4,-4l4,0c2.200001,0 4,1.8 4,4s-1.799999,4 -4,4z" fill="#ffffff"/>
  </g>
 </g>
</svg>